<?xml version="1.0" encoding="utf-8"?>
<svg xmlns="http://www.w3.org/2000/svg" xmlns:xlink="http://www.w3.org/1999/xlink" style="margin: auto; background: none; display: block; shape-rendering: auto;" width="457px" height="457px" viewBox="0 0 100 100" preserveAspectRatio="xMidYMid">
<g transform="rotate(0 50 50)">
  <rect x="48.5" y="35.5" rx="1.5" ry="3.5" width="3" height="7" fill="#fe718d">
    <animate attributeName="opacity" values="1;0" keyTimes="0;1" dur="0.1582278481012658s" begin="-0.1460564751703992s" repeatCount="indefinite"></animate>
  </rect>
</g><g transform="rotate(27.692307692307693 50 50)">
  <rect x="48.5" y="35.5" rx="1.5" ry="3.5" width="3" height="7" fill="#f47e60">
    <animate attributeName="opacity" values="1;0" keyTimes="0;1" dur="0.1582278481012658s" begin="-0.13388510223953262s" repeatCount="indefinite"></animate>
  </rect>
</g><g transform="rotate(55.38461538461539 50 50)">
  <rect x="48.5" y="35.5" rx="1.5" ry="3.5" width="3" height="7" fill="#f8b26a">
    <animate attributeName="opacity" values="1;0" keyTimes="0;1" dur="0.1582278481012658s" begin="-0.12171372930866602s" repeatCount="indefinite"></animate>
  </rect>
</g><g transform="rotate(83.07692307692308 50 50)">
  <rect x="48.5" y="35.5" rx="1.5" ry="3.5" width="3" height="7" fill="#abbd81">
    <animate attributeName="opacity" values="1;0" keyTimes="0;1" dur="0.1582278481012658s" begin="-0.10954235637779942s" repeatCount="indefinite"></animate>
  </rect>
</g><g transform="rotate(110.76923076923077 50 50)">
  <rect x="48.5" y="35.5" rx="1.5" ry="3.5" width="3" height="7" fill="#849b87">
    <animate attributeName="opacity" values="1;0" keyTimes="0;1" dur="0.1582278481012658s" begin="-0.09737098344693282s" repeatCount="indefinite"></animate>
  </rect>
</g><g transform="rotate(138.46153846153845 50 50)">
  <rect x="48.5" y="35.5" rx="1.5" ry="3.5" width="3" height="7" fill="#6492ac">
    <animate attributeName="opacity" values="1;0" keyTimes="0;1" dur="0.1582278481012658s" begin="-0.08519961051606621s" repeatCount="indefinite"></animate>
  </rect>
</g><g transform="rotate(166.15384615384616 50 50)">
  <rect x="48.5" y="35.5" rx="1.5" ry="3.5" width="3" height="7" fill="#637cb5">
    <animate attributeName="opacity" values="1;0" keyTimes="0;1" dur="0.1582278481012658s" begin="-0.0730282375851996s" repeatCount="indefinite"></animate>
  </rect>
</g><g transform="rotate(193.84615384615384 50 50)">
  <rect x="48.5" y="35.5" rx="1.5" ry="3.5" width="3" height="7" fill="#6a63b6">
    <animate attributeName="opacity" values="1;0" keyTimes="0;1" dur="0.1582278481012658s" begin="-0.06085686465433301s" repeatCount="indefinite"></animate>
  </rect>
</g><g transform="rotate(221.53846153846155 50 50)">
  <rect x="48.5" y="35.5" rx="1.5" ry="3.5" width="3" height="7" fill="#fe718d">
    <animate attributeName="opacity" values="1;0" keyTimes="0;1" dur="0.1582278481012658s" begin="-0.04868549172346641s" repeatCount="indefinite"></animate>
  </rect>
</g><g transform="rotate(249.23076923076923 50 50)">
  <rect x="48.5" y="35.5" rx="1.5" ry="3.5" width="3" height="7" fill="#f47e60">
    <animate attributeName="opacity" values="1;0" keyTimes="0;1" dur="0.1582278481012658s" begin="-0.0365141187925998s" repeatCount="indefinite"></animate>
  </rect>
</g><g transform="rotate(276.9230769230769 50 50)">
  <rect x="48.5" y="35.5" rx="1.5" ry="3.5" width="3" height="7" fill="#f8b26a">
    <animate attributeName="opacity" values="1;0" keyTimes="0;1" dur="0.1582278481012658s" begin="-0.024342745861733205s" repeatCount="indefinite"></animate>
  </rect>
</g><g transform="rotate(304.61538461538464 50 50)">
  <rect x="48.5" y="35.5" rx="1.5" ry="3.5" width="3" height="7" fill="#abbd81">
    <animate attributeName="opacity" values="1;0" keyTimes="0;1" dur="0.1582278481012658s" begin="-0.012171372930866602s" repeatCount="indefinite"></animate>
  </rect>
</g><g transform="rotate(332.3076923076923 50 50)">
  <rect x="48.5" y="35.5" rx="1.5" ry="3.5" width="3" height="7" fill="#849b87">
    <animate attributeName="opacity" values="1;0" keyTimes="0;1" dur="0.1582278481012658s" begin="0s" repeatCount="indefinite"></animate>
  </rect>
</g>
<!-- [ldio] generated by https://loading.io/ --></svg>